<svg xmlns="http://www.w3.org/2000/svg" xmlns:xlink="http://www.w3.org/1999/xlink" width="500" zoomAndPan="magnify" viewBox="0 0 375 374.999991" height="500" preserveAspectRatio="xMidYMid meet" version="1.0"><defs><g/><clipPath id="f55dcef678"><rect x="0" width="69" y="0" height="22"/></clipPath></defs><g fill="#000000" fill-opacity="1"><g transform="translate(189.428474, 117.547111)"><g><path d="M -35.125 12.234375 L -71.046875 12.234375 C -84.929688 12.234375 -95.050781 15.460938 -101.40625 21.921875 C -107.769531 28.390625 -110.953125 37.769531 -110.953125 50.0625 C -110.953125 62.363281 -107.769531 71.742188 -101.40625 78.203125 C -95.050781 84.671875 -84.929688 87.90625 -71.046875 87.90625 L -35.125 87.90625 Z M -5.875 0 C -9.476562 0.957031 -12.207031 1.960938 -14.0625 3.015625 C -15.914062 4.078125 -17.160156 5.664062 -17.796875 7.78125 C -18.429688 9.90625 -18.75 12.984375 -18.75 17.015625 L -18.75 83.125 C -18.75 87.15625 -18.429688 90.226562 -17.796875 92.34375 C -17.160156 94.46875 -15.914062 96.085938 -14.0625 97.203125 C -12.207031 98.316406 -9.476562 99.296875 -5.875 100.140625 L -75.03125 100.140625 C -92.9375 100.140625 -106.128906 95.738281 -114.609375 86.9375 C -123.085938 78.144531 -127.328125 65.851562 -127.328125 50.0625 C -127.328125 34.382812 -123.085938 22.117188 -114.609375 13.265625 C -106.128906 4.421875 -92.9375 0 -75.03125 0 Z M -5.875 0 "/></g></g></g><g fill="#000000" fill-opacity="1"><g transform="translate(152.806636, 156.938397)"><g><path d="M -35.125 12.234375 L -71.046875 12.234375 C -84.929688 12.234375 -95.050781 15.460938 -101.40625 21.921875 C -107.769531 28.390625 -110.953125 37.769531 -110.953125 50.0625 C -110.953125 62.363281 -107.769531 71.742188 -101.40625 78.203125 C -95.050781 84.671875 -84.929688 87.90625 -71.046875 87.90625 L -35.125 87.90625 Z M -5.875 0 C -9.476562 0.957031 -12.207031 1.960938 -14.0625 3.015625 C -15.914062 4.078125 -17.160156 5.664062 -17.796875 7.78125 C -18.429688 9.90625 -18.75 12.984375 -18.75 17.015625 L -18.75 83.125 C -18.75 87.15625 -18.429688 90.226562 -17.796875 92.34375 C -17.160156 94.46875 -15.914062 96.085938 -14.0625 97.203125 C -12.207031 98.316406 -9.476562 99.296875 -5.875 100.140625 L -75.03125 100.140625 C -92.9375 100.140625 -106.128906 95.738281 -114.609375 86.9375 C -123.085938 78.144531 -127.328125 65.851562 -127.328125 50.0625 C -127.328125 34.382812 -123.085938 22.117188 -114.609375 13.265625 C -106.128906 4.421875 -92.9375 0 -75.03125 0 Z M -5.875 0 "/></g></g></g><g fill="#000000" fill-opacity="1"><g transform="translate(185.557843, 217.669476)"><g><path d="M 35.125 -12.234375 L 71.046875 -12.234375 C 84.929688 -12.234375 95.050781 -15.460938 101.40625 -21.921875 C 107.769531 -28.390625 110.953125 -37.769531 110.953125 -50.0625 C 110.953125 -62.363281 107.769531 -71.742188 101.40625 -78.203125 C 95.050781 -84.671875 84.929688 -87.90625 71.046875 -87.90625 L 35.125 -87.90625 Z M 5.875 0 C 9.476562 -0.957031 12.207031 -1.960938 14.0625 -3.015625 C 15.914062 -4.078125 17.160156 -5.664062 17.796875 -7.78125 C 18.429688 -9.90625 18.75 -12.984375 18.75 -17.015625 L 18.75 -83.125 C 18.75 -87.15625 18.429688 -90.226562 17.796875 -92.34375 C 17.160156 -94.46875 15.914062 -96.085938 14.0625 -97.203125 C 12.207031 -98.316406 9.476562 -99.296875 5.875 -100.140625 L 75.03125 -100.140625 C 92.9375 -100.140625 106.128906 -95.738281 114.609375 -86.9375 C 123.085938 -78.144531 127.328125 -65.851562 127.328125 -50.0625 C 127.328125 -34.382812 123.085938 -22.117188 114.609375 -13.265625 C 106.128906 -4.421875 92.9375 0 75.03125 0 Z M 5.875 0 "/></g></g></g><g fill="#000000" fill-opacity="1"><g transform="translate(222.18749, 257.44212)"><g><path d="M 35.125 -12.234375 L 71.046875 -12.234375 C 84.929688 -12.234375 95.050781 -15.460938 101.40625 -21.921875 C 107.769531 -28.390625 110.953125 -37.769531 110.953125 -50.0625 C 110.953125 -62.363281 107.769531 -71.742188 101.40625 -78.203125 C 95.050781 -84.671875 84.929688 -87.90625 71.046875 -87.90625 L 35.125 -87.90625 Z M 5.875 0 C 9.476562 -0.957031 12.207031 -1.960938 14.0625 -3.015625 C 15.914062 -4.078125 17.160156 -5.664062 17.796875 -7.78125 C 18.429688 -9.90625 18.75 -12.984375 18.75 -17.015625 L 18.75 -83.125 C 18.75 -87.15625 18.429688 -90.226562 17.796875 -92.34375 C 17.160156 -94.46875 15.914062 -96.085938 14.0625 -97.203125 C 12.207031 -98.316406 9.476562 -99.296875 5.875 -100.140625 L 75.03125 -100.140625 C 92.9375 -100.140625 106.128906 -95.738281 114.609375 -86.9375 C 123.085938 -78.144531 127.328125 -65.851562 127.328125 -50.0625 C 127.328125 -34.382812 123.085938 -22.117188 114.609375 -13.265625 C 106.128906 -4.421875 92.9375 0 75.03125 0 Z M 5.875 0 "/></g></g></g><g transform="matrix(1, 0, 0, 1, 153, 237)"><g clip-path="url(#f55dcef678)"><g fill="#000000" fill-opacity="1"><g transform="translate(0.398601, 16.890785)"><g><path d="M 2.828125 -4.953125 L 2.828125 -1.015625 L 8.171875 -1.015625 L 8.171875 0 L 1.59375 0 L 1.59375 -10.5 L 8.0625 -10.5 L 8.0625 -9.484375 L 2.828125 -9.484375 L 2.828125 -5.96875 L 7.4375 -5.96875 L 7.4375 -4.953125 Z M 2.828125 -4.953125 "/></g></g></g><g fill="#000000" fill-opacity="1"><g transform="translate(9.259568, 16.890785)"><g><path d="M 4.59375 0.15625 C 3.925781 0.15625 3.332031 0.0664062 2.8125 -0.109375 C 2.289062 -0.296875 1.851562 -0.535156 1.5 -0.828125 C 1.144531 -1.117188 0.882812 -1.4375 0.71875 -1.78125 L 1.390625 -2.609375 L 1.578125 -2.609375 C 2.222656 -1.515625 3.226562 -0.96875 4.59375 -0.96875 C 5.375 -0.96875 5.957031 -1.128906 6.34375 -1.453125 C 6.726562 -1.785156 6.921875 -2.242188 6.921875 -2.828125 C 6.921875 -3.179688 6.859375 -3.476562 6.734375 -3.71875 C 6.609375 -3.957031 6.398438 -4.160156 6.109375 -4.328125 C 5.816406 -4.492188 5.421875 -4.640625 4.921875 -4.765625 L 3.6875 -5.0625 C 2.769531 -5.289062 2.09375 -5.644531 1.65625 -6.125 C 1.226562 -6.601562 1.015625 -7.210938 1.015625 -7.953125 C 1.015625 -8.472656 1.148438 -8.9375 1.421875 -9.34375 C 1.691406 -9.75 2.082031 -10.066406 2.59375 -10.296875 C 3.113281 -10.523438 3.734375 -10.640625 4.453125 -10.640625 C 5.242188 -10.640625 5.910156 -10.53125 6.453125 -10.3125 C 6.992188 -10.09375 7.425781 -9.757812 7.75 -9.3125 L 7.15625 -8.5 L 6.96875 -8.5 C 6.664062 -8.863281 6.304688 -9.128906 5.890625 -9.296875 C 5.484375 -9.472656 5.003906 -9.5625 4.453125 -9.5625 C 3.722656 -9.5625 3.171875 -9.421875 2.796875 -9.140625 C 2.429688 -8.859375 2.25 -8.46875 2.25 -7.96875 C 2.25 -7.5 2.382812 -7.125 2.65625 -6.84375 C 2.925781 -6.5625 3.382812 -6.347656 4.03125 -6.203125 L 5.296875 -5.890625 C 6.304688 -5.648438 7.039062 -5.28125 7.5 -4.78125 C 7.957031 -4.289062 8.1875 -3.660156 8.1875 -2.890625 C 8.1875 -2.296875 8.050781 -1.769531 7.78125 -1.3125 C 7.519531 -0.851562 7.117188 -0.492188 6.578125 -0.234375 C 6.035156 0.0234375 5.375 0.15625 4.59375 0.15625 Z M 4.59375 0.15625 "/></g></g></g><g fill="#000000" fill-opacity="1"><g transform="translate(18.127695, 16.890785)"><g><path d="M 8.1875 -10.5 L 8.1875 -9.453125 L 4.90625 -9.453125 L 4.90625 0 L 3.671875 0 L 3.671875 -9.453125 L 0.390625 -9.453125 L 0.390625 -10.5 Z M 8.1875 -10.5 "/></g></g></g><g fill="#000000" fill-opacity="1"><g transform="translate(25.374186, 16.890785)"><g><path d="M 1.9375 0.078125 C 1.65625 0.078125 1.4375 0 1.28125 -0.15625 C 1.125 -0.3125 1.046875 -0.515625 1.046875 -0.765625 C 1.046875 -1.015625 1.125 -1.21875 1.28125 -1.375 C 1.4375 -1.539062 1.65625 -1.625 1.9375 -1.625 C 2.207031 -1.625 2.421875 -1.546875 2.578125 -1.390625 C 2.742188 -1.234375 2.828125 -1.03125 2.828125 -0.78125 C 2.828125 -0.53125 2.742188 -0.320312 2.578125 -0.15625 C 2.421875 0 2.207031 0.078125 1.9375 0.078125 Z M 1.9375 0.078125 "/></g></g></g><g fill="#000000" fill-opacity="1"><g transform="translate(29.241442, 16.890785)"><g/></g></g><g fill="#000000" fill-opacity="1"><g transform="translate(32.843227, 16.890785)"><g><path d="M 0.625 -0.484375 C 0.625 -1.054688 0.6875 -1.519531 0.8125 -1.875 C 0.945312 -2.226562 1.164062 -2.554688 1.46875 -2.859375 C 1.78125 -3.171875 2.269531 -3.570312 2.9375 -4.0625 L 4.09375 -4.90625 C 4.519531 -5.21875 4.863281 -5.503906 5.125 -5.765625 C 5.394531 -6.023438 5.609375 -6.304688 5.765625 -6.609375 C 5.921875 -6.921875 6 -7.269531 6 -7.65625 C 6 -8.28125 5.832031 -8.75 5.5 -9.0625 C 5.175781 -9.382812 4.660156 -9.546875 3.953125 -9.546875 C 3.398438 -9.546875 2.90625 -9.414062 2.46875 -9.15625 C 2.039062 -8.894531 1.695312 -8.53125 1.4375 -8.0625 L 1.28125 -8.03125 L 0.53125 -8.796875 C 0.882812 -9.367188 1.347656 -9.816406 1.921875 -10.140625 C 2.503906 -10.472656 3.179688 -10.640625 3.953125 -10.640625 C 4.703125 -10.640625 5.320312 -10.515625 5.8125 -10.265625 C 6.300781 -10.015625 6.664062 -9.664062 6.90625 -9.21875 C 7.144531 -8.769531 7.265625 -8.25 7.265625 -7.65625 C 7.265625 -7.1875 7.164062 -6.75 6.96875 -6.34375 C 6.769531 -5.9375 6.488281 -5.550781 6.125 -5.1875 C 5.769531 -4.832031 5.320312 -4.457031 4.78125 -4.0625 L 3.609375 -3.203125 C 3.171875 -2.890625 2.832031 -2.617188 2.59375 -2.390625 C 2.363281 -2.160156 2.195312 -1.941406 2.09375 -1.734375 C 1.988281 -1.523438 1.9375 -1.285156 1.9375 -1.015625 L 7.265625 -1.015625 L 7.265625 0 L 0.625 0 Z M 0.625 -0.484375 "/></g></g></g><g fill="#000000" fill-opacity="1"><g transform="translate(40.907783, 16.890785)"><g><path d="M 5.15625 0.15625 C 4.382812 0.15625 3.691406 -0.03125 3.078125 -0.40625 C 2.472656 -0.78125 1.988281 -1.367188 1.625 -2.171875 C 1.257812 -2.972656 1.078125 -4 1.078125 -5.25 C 1.078125 -6.488281 1.257812 -7.507812 1.625 -8.3125 C 1.988281 -9.125 2.472656 -9.710938 3.078125 -10.078125 C 3.691406 -10.453125 4.382812 -10.640625 5.15625 -10.640625 C 5.925781 -10.640625 6.617188 -10.453125 7.234375 -10.078125 C 7.847656 -9.710938 8.332031 -9.125 8.6875 -8.3125 C 9.050781 -7.507812 9.234375 -6.488281 9.234375 -5.25 C 9.234375 -4 9.050781 -2.972656 8.6875 -2.171875 C 8.332031 -1.367188 7.847656 -0.78125 7.234375 -0.40625 C 6.617188 -0.03125 5.925781 0.15625 5.15625 0.15625 Z M 5.15625 -0.984375 C 6.070312 -0.984375 6.765625 -1.3125 7.234375 -1.96875 C 7.710938 -2.632812 7.953125 -3.726562 7.953125 -5.25 C 7.953125 -6.769531 7.710938 -7.859375 7.234375 -8.515625 C 6.765625 -9.171875 6.070312 -9.5 5.15625 -9.5 C 4.550781 -9.5 4.039062 -9.359375 3.625 -9.078125 C 3.21875 -8.804688 2.90625 -8.359375 2.6875 -7.734375 C 2.476562 -7.109375 2.375 -6.28125 2.375 -5.25 C 2.375 -4.21875 2.476562 -3.390625 2.6875 -2.765625 C 2.90625 -2.140625 3.21875 -1.6875 3.625 -1.40625 C 4.039062 -1.125 4.550781 -0.984375 5.15625 -0.984375 Z M 5.15625 -0.984375 "/></g></g></g><g fill="#000000" fill-opacity="1"><g transform="translate(51.074562, 16.890785)"><g><path d="M 0.625 -0.484375 C 0.625 -1.054688 0.6875 -1.519531 0.8125 -1.875 C 0.945312 -2.226562 1.164062 -2.554688 1.46875 -2.859375 C 1.78125 -3.171875 2.269531 -3.570312 2.9375 -4.0625 L 4.09375 -4.90625 C 4.519531 -5.21875 4.863281 -5.503906 5.125 -5.765625 C 5.394531 -6.023438 5.609375 -6.304688 5.765625 -6.609375 C 5.921875 -6.921875 6 -7.269531 6 -7.65625 C 6 -8.28125 5.832031 -8.75 5.5 -9.0625 C 5.175781 -9.382812 4.660156 -9.546875 3.953125 -9.546875 C 3.398438 -9.546875 2.90625 -9.414062 2.46875 -9.15625 C 2.039062 -8.894531 1.695312 -8.53125 1.4375 -8.0625 L 1.28125 -8.03125 L 0.53125 -8.796875 C 0.882812 -9.367188 1.347656 -9.816406 1.921875 -10.140625 C 2.503906 -10.472656 3.179688 -10.640625 3.953125 -10.640625 C 4.703125 -10.640625 5.320312 -10.515625 5.8125 -10.265625 C 6.300781 -10.015625 6.664062 -9.664062 6.90625 -9.21875 C 7.144531 -8.769531 7.265625 -8.25 7.265625 -7.65625 C 7.265625 -7.1875 7.164062 -6.75 6.96875 -6.34375 C 6.769531 -5.9375 6.488281 -5.550781 6.125 -5.1875 C 5.769531 -4.832031 5.320312 -4.457031 4.78125 -4.0625 L 3.609375 -3.203125 C 3.171875 -2.890625 2.832031 -2.617188 2.59375 -2.390625 C 2.363281 -2.160156 2.195312 -1.941406 2.09375 -1.734375 C 1.988281 -1.523438 1.9375 -1.285156 1.9375 -1.015625 L 7.265625 -1.015625 L 7.265625 0 L 0.625 0 Z M 0.625 -0.484375 "/></g></g></g><g fill="#000000" fill-opacity="1"><g transform="translate(59.139118, 16.890785)"><g><path d="M 5.015625 0.15625 C 4.265625 0.15625 3.59375 -0.0195312 3 -0.375 C 2.414062 -0.738281 1.945312 -1.320312 1.59375 -2.125 C 1.25 -2.925781 1.078125 -3.96875 1.078125 -5.25 C 1.078125 -6.488281 1.25 -7.507812 1.59375 -8.3125 C 1.945312 -9.125 2.425781 -9.710938 3.03125 -10.078125 C 3.644531 -10.453125 4.34375 -10.640625 5.125 -10.640625 C 6.46875 -10.640625 7.457031 -10.234375 8.09375 -9.421875 L 7.5 -8.609375 L 7.3125 -8.609375 C 6.800781 -9.234375 6.070312 -9.546875 5.125 -9.546875 C 4.21875 -9.546875 3.523438 -9.203125 3.046875 -8.515625 C 2.566406 -7.828125 2.328125 -6.726562 2.328125 -5.21875 L 2.484375 -5.171875 C 2.765625 -5.765625 3.132812 -6.207031 3.59375 -6.5 C 4.050781 -6.800781 4.617188 -6.953125 5.296875 -6.953125 C 5.953125 -6.953125 6.523438 -6.8125 7.015625 -6.53125 C 7.503906 -6.25 7.875 -5.84375 8.125 -5.3125 C 8.382812 -4.78125 8.515625 -4.148438 8.515625 -3.421875 C 8.515625 -2.691406 8.367188 -2.054688 8.078125 -1.515625 C 7.796875 -0.984375 7.390625 -0.570312 6.859375 -0.28125 C 6.335938 0.0078125 5.722656 0.15625 5.015625 0.15625 Z M 5.015625 -0.96875 C 5.703125 -0.96875 6.242188 -1.175781 6.640625 -1.59375 C 7.035156 -2.007812 7.234375 -2.617188 7.234375 -3.421875 C 7.234375 -4.210938 7.035156 -4.816406 6.640625 -5.234375 C 6.242188 -5.660156 5.703125 -5.875 5.015625 -5.875 C 4.535156 -5.875 4.117188 -5.773438 3.765625 -5.578125 C 3.421875 -5.390625 3.15625 -5.109375 2.96875 -4.734375 C 2.78125 -4.367188 2.6875 -3.929688 2.6875 -3.421875 C 2.6875 -2.910156 2.78125 -2.46875 2.96875 -2.09375 C 3.15625 -1.726562 3.421875 -1.445312 3.765625 -1.25 C 4.117188 -1.0625 4.535156 -0.96875 5.015625 -0.96875 Z M 5.015625 -0.96875 "/></g></g></g></g></g></svg>